# xmcd CD database file
#
# Track frame offsets:
#	150
#	13953
#	30379
#	48514
#	67250
#	78716
#	94450
#	116375
#	131509
#	146516
#	166063
#	191028
#
# Disc length: 2899 seconds
#
# Revision: 0
# Processed by: cddbd v1.4PL0 Copyright (c) Steve Scherf et al.
# Submitted via: CDex 1.40Beta8
#
DISCID=a90b510c
DTITLE=Rough Cuts - The Rough Cuts
DYEAR=1998
DGENRE=Blues
TTITLE0=Goin To Miami
TTITLE1=Nothin But The Blues
TTITLE2=99 Days
TTITLE3=Pale Fire
TTITLE4=Cold Hard Cash
TTITLE5=Living On The Deuce
TTITLE6=Something New On Me
TTITLE7=Trust Me
TTITLE8=Midnight Call
TTITLE9=Talk To Me Baby
TTITLE10=Deep Down In My Heart
TTITLE11=Me and The Devil Blues
EXTD=YEAR: 1998 ID3G: 0
EXTT0=
EXTT1=
EXTT2=
EXTT3=
EXTT4=
EXTT5=
EXTT6=
EXTT7=
EXTT8=
EXTT9=
EXTT10=
EXTT11=
PLAYORDER=
